<mxfile host="app.diagrams.net" agent="Mozilla/5.0 (Windows NT 10.0; Win64; x64) AppleWebKit/537.36 (KHTML, like Gecko) Chrome/134.0.0.0 Safari/537.36" version="26.2.6" pages="2">
  <diagram name="Page-1" id="Lb-_UWUphpEwMAvJYSBU">
    <mxGraphModel dx="874" dy="477" grid="1" gridSize="10" guides="1" tooltips="1" connect="1" arrows="1" fold="1" page="1" pageScale="1" pageWidth="850" pageHeight="1100" math="0" shadow="0">
      <root>
        <mxCell id="0" />
        <mxCell id="1" parent="0" />
        <mxCell id="-gU2kGT4cbX1jibzji8Q-50" value="" style="rounded=0;whiteSpace=wrap;html=1;strokeColor=none;fillColor=none;" parent="1" vertex="1">
          <mxGeometry x="150" y="73" width="530" height="290" as="geometry" />
        </mxCell>
        <mxCell id="-gU2kGT4cbX1jibzji8Q-20" value="" style="group;fontStyle=1;fontSize=10;" parent="1" vertex="1" connectable="0">
          <mxGeometry x="158" y="100" width="80" height="258" as="geometry" />
        </mxCell>
        <mxCell id="-gU2kGT4cbX1jibzji8Q-4" value="" style="edgeStyle=orthogonalEdgeStyle;rounded=0;orthogonalLoop=1;jettySize=auto;html=1;fontSize=10;" parent="-gU2kGT4cbX1jibzji8Q-20" source="-gU2kGT4cbX1jibzji8Q-1" edge="1">
          <mxGeometry relative="1" as="geometry">
            <mxPoint x="40" y="44" as="targetPoint" />
          </mxGeometry>
        </mxCell>
        <mxCell id="-gU2kGT4cbX1jibzji8Q-1" value="&lt;font&gt;Input&lt;/font&gt;" style="rounded=1;whiteSpace=wrap;html=1;fillColor=#f5f5f5;fontColor=#333333;strokeColor=#666666;" parent="-gU2kGT4cbX1jibzji8Q-20" vertex="1">
          <mxGeometry x="5" width="70" height="24" as="geometry" />
        </mxCell>
        <mxCell id="-gU2kGT4cbX1jibzji8Q-7" value="&lt;font style=&quot;font-size: 12px; font-weight: normal;&quot;&gt;Conv2D (3x3)&lt;/font&gt;" style="whiteSpace=wrap;html=1;rounded=1;fillColor=#fff2cc;strokeColor=#d6b656;fontStyle=1;fontSize=10;" parent="-gU2kGT4cbX1jibzji8Q-20" vertex="1">
          <mxGeometry y="142" width="80" height="20" as="geometry" />
        </mxCell>
        <mxCell id="-gU2kGT4cbX1jibzji8Q-19" style="edgeStyle=orthogonalEdgeStyle;rounded=0;orthogonalLoop=1;jettySize=auto;html=1;exitX=0.5;exitY=1;exitDx=0;exitDy=0;entryX=0.5;entryY=0;entryDx=0;entryDy=0;fontSize=10;" parent="-gU2kGT4cbX1jibzji8Q-20" source="-gU2kGT4cbX1jibzji8Q-9" target="-gU2kGT4cbX1jibzji8Q-18" edge="1">
          <mxGeometry relative="1" as="geometry" />
        </mxCell>
        <mxCell id="-gU2kGT4cbX1jibzji8Q-9" value="&lt;font style=&quot;font-size: 12px; font-weight: normal;&quot;&gt;ReLU&lt;/font&gt;" style="whiteSpace=wrap;html=1;rounded=1;fillColor=#e1d5e7;strokeColor=#9673a6;fontStyle=1;fontSize=10;" parent="-gU2kGT4cbX1jibzji8Q-20" vertex="1">
          <mxGeometry y="191" width="80" height="20" as="geometry" />
        </mxCell>
        <mxCell id="-gU2kGT4cbX1jibzji8Q-12" value="&lt;span style=&quot;font-weight: normal;&quot;&gt;&lt;font style=&quot;font-size: 12px;&quot;&gt;Batch Norm&lt;/font&gt;&lt;/span&gt;" style="whiteSpace=wrap;html=1;rounded=1;fillColor=#d5e8d4;strokeColor=#82b366;fontStyle=1;fontSize=10;" parent="-gU2kGT4cbX1jibzji8Q-20" vertex="1">
          <mxGeometry y="166" width="80" height="20" as="geometry" />
        </mxCell>
        <mxCell id="-gU2kGT4cbX1jibzji8Q-14" value="&lt;span style=&quot;font-weight: normal;&quot;&gt;&lt;font style=&quot;font-size: 12px;&quot;&gt;Conv2D (3x3)&lt;/font&gt;&lt;/span&gt;" style="whiteSpace=wrap;html=1;rounded=1;fillColor=#fff2cc;strokeColor=#d6b656;fontStyle=1;fontSize=10;" parent="-gU2kGT4cbX1jibzji8Q-20" vertex="1">
          <mxGeometry y="46" width="80" height="20" as="geometry" />
        </mxCell>
        <mxCell id="-gU2kGT4cbX1jibzji8Q-17" style="edgeStyle=orthogonalEdgeStyle;rounded=0;orthogonalLoop=1;jettySize=auto;html=1;exitX=0.5;exitY=1;exitDx=0;exitDy=0;entryX=0.5;entryY=0;entryDx=0;entryDy=0;fontSize=10;" parent="-gU2kGT4cbX1jibzji8Q-20" source="-gU2kGT4cbX1jibzji8Q-15" target="-gU2kGT4cbX1jibzji8Q-7" edge="1">
          <mxGeometry relative="1" as="geometry" />
        </mxCell>
        <mxCell id="-gU2kGT4cbX1jibzji8Q-15" value="&lt;span style=&quot;font-weight: normal;&quot;&gt;&lt;font style=&quot;font-size: 12px;&quot;&gt;ReLU&lt;/font&gt;&lt;/span&gt;" style="whiteSpace=wrap;html=1;rounded=1;fillColor=#e1d5e7;strokeColor=#9673a6;fontStyle=1;fontSize=10;" parent="-gU2kGT4cbX1jibzji8Q-20" vertex="1">
          <mxGeometry y="95" width="80" height="20" as="geometry" />
        </mxCell>
        <mxCell id="-gU2kGT4cbX1jibzji8Q-16" value="&lt;font style=&quot;font-size: 12px; font-weight: normal;&quot;&gt;Batch Norm&lt;/font&gt;" style="whiteSpace=wrap;html=1;rounded=1;fillColor=#d5e8d4;strokeColor=#82b366;fontStyle=1;fontSize=10;" parent="-gU2kGT4cbX1jibzji8Q-20" vertex="1">
          <mxGeometry y="70" width="80" height="20" as="geometry" />
        </mxCell>
        <mxCell id="-gU2kGT4cbX1jibzji8Q-18" value="&lt;font style=&quot;font-size: 12px; font-weight: normal;&quot;&gt;Output&lt;/font&gt;" style="rounded=1;whiteSpace=wrap;html=1;fillColor=#f5f5f5;fontColor=#333333;strokeColor=#666666;fontStyle=1;fontSize=10;" parent="-gU2kGT4cbX1jibzji8Q-20" vertex="1">
          <mxGeometry x="5" y="234" width="70" height="24" as="geometry" />
        </mxCell>
        <mxCell id="-gU2kGT4cbX1jibzji8Q-43" value="Conv Block" style="text;html=1;align=center;verticalAlign=middle;whiteSpace=wrap;rounded=0;fontStyle=1" parent="1" vertex="1">
          <mxGeometry x="160" y="80" width="70" height="20" as="geometry" />
        </mxCell>
        <mxCell id="-gU2kGT4cbX1jibzji8Q-44" value="" style="group;fontSize=10;" parent="1" vertex="1" connectable="0">
          <mxGeometry x="250" y="100" width="213.5" height="140" as="geometry" />
        </mxCell>
        <mxCell id="-gU2kGT4cbX1jibzji8Q-28" style="edgeStyle=orthogonalEdgeStyle;rounded=0;orthogonalLoop=1;jettySize=auto;html=1;exitX=0.5;exitY=1;exitDx=0;exitDy=0;entryX=0.5;entryY=0;entryDx=0;entryDy=0;" parent="-gU2kGT4cbX1jibzji8Q-44" source="-gU2kGT4cbX1jibzji8Q-21" target="-gU2kGT4cbX1jibzji8Q-22" edge="1">
          <mxGeometry relative="1" as="geometry" />
        </mxCell>
        <mxCell id="-gU2kGT4cbX1jibzji8Q-21" value="&lt;font style=&quot;&quot;&gt;Input&lt;/font&gt;" style="rounded=1;whiteSpace=wrap;html=1;fillColor=#f5f5f5;fontColor=#333333;strokeColor=#666666;" parent="-gU2kGT4cbX1jibzji8Q-44" vertex="1">
          <mxGeometry x="17.5" width="70" height="24" as="geometry" />
        </mxCell>
        <mxCell id="-gU2kGT4cbX1jibzji8Q-31" style="edgeStyle=orthogonalEdgeStyle;rounded=0;orthogonalLoop=1;jettySize=auto;html=1;exitX=1;exitY=0.5;exitDx=0;exitDy=0;entryX=0;entryY=0.5;entryDx=0;entryDy=0;" parent="-gU2kGT4cbX1jibzji8Q-44" source="-gU2kGT4cbX1jibzji8Q-22" target="-gU2kGT4cbX1jibzji8Q-27" edge="1">
          <mxGeometry relative="1" as="geometry" />
        </mxCell>
        <mxCell id="-gU2kGT4cbX1jibzji8Q-22" value="&lt;font style=&quot;&quot;&gt;Conv Block&lt;/font&gt;" style="rounded=1;whiteSpace=wrap;html=1;fillColor=#f8cecc;strokeColor=#b85450;" parent="-gU2kGT4cbX1jibzji8Q-44" vertex="1">
          <mxGeometry x="17.5" y="47" width="70" height="20" as="geometry" />
        </mxCell>
        <mxCell id="-gU2kGT4cbX1jibzji8Q-29" style="edgeStyle=orthogonalEdgeStyle;rounded=0;orthogonalLoop=1;jettySize=auto;html=1;exitX=0.5;exitY=1;exitDx=0;exitDy=0;entryX=0.5;entryY=0;entryDx=0;entryDy=0;" parent="-gU2kGT4cbX1jibzji8Q-44" source="-gU2kGT4cbX1jibzji8Q-23" target="-gU2kGT4cbX1jibzji8Q-26" edge="1">
          <mxGeometry relative="1" as="geometry" />
        </mxCell>
        <mxCell id="-gU2kGT4cbX1jibzji8Q-23" value="&lt;font style=&quot;&quot;&gt;Max Pooling (2x2)&lt;/font&gt;" style="rounded=1;whiteSpace=wrap;html=1;fillColor=#b1ddf0;strokeColor=#10739e;" parent="-gU2kGT4cbX1jibzji8Q-44" vertex="1">
          <mxGeometry y="71" width="105" height="23" as="geometry" />
        </mxCell>
        <mxCell id="-gU2kGT4cbX1jibzji8Q-26" value="&lt;font style=&quot;&quot;&gt;Output&lt;/font&gt;" style="rounded=1;whiteSpace=wrap;html=1;fillColor=#f5f5f5;fontColor=#333333;strokeColor=#666666;" parent="-gU2kGT4cbX1jibzji8Q-44" vertex="1">
          <mxGeometry x="17.5" y="116" width="70" height="24" as="geometry" />
        </mxCell>
        <mxCell id="-gU2kGT4cbX1jibzji8Q-27" value="&lt;font style=&quot;&quot;&gt;Skip Connection&lt;/font&gt;" style="rounded=1;whiteSpace=wrap;html=1;fillColor=#ffff88;strokeColor=#36393d;" parent="-gU2kGT4cbX1jibzji8Q-44" vertex="1">
          <mxGeometry x="110.5" y="45" width="100" height="23" as="geometry" />
        </mxCell>
        <mxCell id="-gU2kGT4cbX1jibzji8Q-46" value="Encoder" style="text;html=1;align=center;verticalAlign=middle;whiteSpace=wrap;rounded=0;fontStyle=1" parent="1" vertex="1">
          <mxGeometry x="270" y="80" width="70" height="20" as="geometry" />
        </mxCell>
        <mxCell id="-gU2kGT4cbX1jibzji8Q-47" value="" style="group" parent="1" vertex="1" connectable="0">
          <mxGeometry x="475" y="99" width="196" height="177" as="geometry" />
        </mxCell>
        <mxCell id="-gU2kGT4cbX1jibzji8Q-39" style="edgeStyle=orthogonalEdgeStyle;rounded=0;orthogonalLoop=1;jettySize=auto;html=1;exitX=0.5;exitY=1;exitDx=0;exitDy=0;entryX=0.5;entryY=0;entryDx=0;entryDy=0;" parent="-gU2kGT4cbX1jibzji8Q-47" source="-gU2kGT4cbX1jibzji8Q-32" target="-gU2kGT4cbX1jibzji8Q-38" edge="1">
          <mxGeometry relative="1" as="geometry" />
        </mxCell>
        <mxCell id="-gU2kGT4cbX1jibzji8Q-32" value="&lt;font style=&quot;&quot;&gt;Input&lt;/font&gt;" style="rounded=1;whiteSpace=wrap;html=1;fillColor=#f5f5f5;fontColor=#333333;strokeColor=#666666;" parent="-gU2kGT4cbX1jibzji8Q-47" vertex="1">
          <mxGeometry x="14" width="70" height="24" as="geometry" />
        </mxCell>
        <mxCell id="-gU2kGT4cbX1jibzji8Q-33" value="&lt;font style=&quot;&quot;&gt;Output&lt;/font&gt;" style="rounded=1;whiteSpace=wrap;html=1;fillColor=#f5f5f5;fontColor=#333333;strokeColor=#666666;" parent="-gU2kGT4cbX1jibzji8Q-47" vertex="1">
          <mxGeometry x="15" y="153" width="70" height="24" as="geometry" />
        </mxCell>
        <mxCell id="-gU2kGT4cbX1jibzji8Q-35" style="edgeStyle=orthogonalEdgeStyle;rounded=0;orthogonalLoop=1;jettySize=auto;html=1;exitX=0.5;exitY=1;exitDx=0;exitDy=0;entryX=0.5;entryY=0;entryDx=0;entryDy=0;" parent="-gU2kGT4cbX1jibzji8Q-47" source="-gU2kGT4cbX1jibzji8Q-34" target="-gU2kGT4cbX1jibzji8Q-33" edge="1">
          <mxGeometry relative="1" as="geometry" />
        </mxCell>
        <mxCell id="-gU2kGT4cbX1jibzji8Q-34" value="&lt;font&gt;Conv Block&lt;/font&gt;" style="rounded=1;whiteSpace=wrap;html=1;fillColor=#f8cecc;strokeColor=#b85450;" parent="-gU2kGT4cbX1jibzji8Q-47" vertex="1">
          <mxGeometry x="15" y="113" width="70" height="20" as="geometry" />
        </mxCell>
        <mxCell id="-gU2kGT4cbX1jibzji8Q-41" style="edgeStyle=orthogonalEdgeStyle;rounded=0;orthogonalLoop=1;jettySize=auto;html=1;exitX=0.5;exitY=1;exitDx=0;exitDy=0;entryX=1;entryY=0.5;entryDx=0;entryDy=0;" parent="-gU2kGT4cbX1jibzji8Q-47" source="-gU2kGT4cbX1jibzji8Q-36" target="-gU2kGT4cbX1jibzji8Q-37" edge="1">
          <mxGeometry relative="1" as="geometry" />
        </mxCell>
        <mxCell id="-gU2kGT4cbX1jibzji8Q-36" value="&lt;font style=&quot;&quot;&gt;Skip Connection&lt;/font&gt;" style="rounded=1;whiteSpace=wrap;html=1;fillColor=#ffff88;strokeColor=#36393d;" parent="-gU2kGT4cbX1jibzji8Q-47" vertex="1">
          <mxGeometry x="96" y="1" width="100" height="23" as="geometry" />
        </mxCell>
        <mxCell id="-gU2kGT4cbX1jibzji8Q-37" value="&lt;font style=&quot;&quot;&gt;Concatenate&amp;nbsp;&lt;/font&gt;" style="rounded=1;whiteSpace=wrap;html=1;fillColor=#cdeb8b;strokeColor=#36393d;" parent="-gU2kGT4cbX1jibzji8Q-47" vertex="1">
          <mxGeometry y="87" width="100" height="23" as="geometry" />
        </mxCell>
        <mxCell id="-gU2kGT4cbX1jibzji8Q-38" value="&lt;font style=&quot;font-size: 11px;&quot;&gt;&lt;font style=&quot;&quot;&gt;Transpose&amp;nbsp;&lt;/font&gt;&lt;span style=&quot;background-color: transparent; color: light-dark(rgb(0, 0, 0), rgb(255, 255, 255));&quot;&gt;&lt;font style=&quot;&quot;&gt;Conv (2x2)&lt;/font&gt;&lt;/span&gt;&lt;/font&gt;" style="rounded=1;whiteSpace=wrap;html=1;fillColor=#ffe6cc;strokeColor=#d79b00;" parent="-gU2kGT4cbX1jibzji8Q-47" vertex="1">
          <mxGeometry x="-8" y="60" width="115" height="23" as="geometry" />
        </mxCell>
        <mxCell id="-gU2kGT4cbX1jibzji8Q-49" value="Decoder" style="text;html=1;align=center;verticalAlign=middle;whiteSpace=wrap;rounded=0;fontStyle=1" parent="1" vertex="1">
          <mxGeometry x="525" y="79" width="70" height="20" as="geometry" />
        </mxCell>
      </root>
    </mxGraphModel>
  </diagram>
  <diagram id="UZ_mkDdNo1GEg9Fo6eb8" name="Page-2">
    <mxGraphModel dx="1113" dy="477" grid="1" gridSize="10" guides="1" tooltips="1" connect="1" arrows="1" fold="1" page="1" pageScale="1" pageWidth="850" pageHeight="1100" math="0" shadow="0">
      <root>
        <mxCell id="0" />
        <mxCell id="1" parent="0" />
        <mxCell id="zTAyR1EP8t8b5qUxrJmI-66" value="" style="group" vertex="1" connectable="0" parent="1">
          <mxGeometry x="68" y="440" width="90" height="97" as="geometry" />
        </mxCell>
        <mxCell id="zTAyR1EP8t8b5qUxrJmI-62" value="" style="group" vertex="1" connectable="0" parent="zTAyR1EP8t8b5qUxrJmI-66">
          <mxGeometry x="5" y="24" width="80" height="68" as="geometry" />
        </mxCell>
        <mxCell id="zTAyR1EP8t8b5qUxrJmI-59" value="&lt;span style=&quot;font-weight: normal;&quot;&gt;&lt;font style=&quot;font-size: 12px;&quot;&gt;BN&lt;/font&gt;&lt;/span&gt;" style="whiteSpace=wrap;html=1;rounded=1;fillColor=#fff2cc;strokeColor=#d6b656;fontStyle=1;fontSize=10;" vertex="1" parent="zTAyR1EP8t8b5qUxrJmI-62">
          <mxGeometry width="80" height="20" as="geometry" />
        </mxCell>
        <mxCell id="zTAyR1EP8t8b5qUxrJmI-60" value="&lt;span style=&quot;font-weight: normal;&quot;&gt;&lt;font style=&quot;font-size: 12px;&quot;&gt;Conv&lt;/font&gt;&lt;/span&gt;" style="whiteSpace=wrap;html=1;rounded=1;fillColor=#e1d5e7;strokeColor=#9673a6;fontStyle=1;fontSize=10;" vertex="1" parent="zTAyR1EP8t8b5qUxrJmI-62">
          <mxGeometry y="48" width="80" height="20" as="geometry" />
        </mxCell>
        <mxCell id="zTAyR1EP8t8b5qUxrJmI-61" value="&lt;font style=&quot;font-size: 12px; font-weight: normal;&quot;&gt;ReLU&lt;/font&gt;" style="whiteSpace=wrap;html=1;rounded=1;fillColor=#d5e8d4;strokeColor=#82b366;fontStyle=1;fontSize=10;" vertex="1" parent="zTAyR1EP8t8b5qUxrJmI-62">
          <mxGeometry y="24" width="80" height="20" as="geometry" />
        </mxCell>
        <mxCell id="zTAyR1EP8t8b5qUxrJmI-63" value="Conv_block" style="text;html=1;align=center;verticalAlign=middle;whiteSpace=wrap;rounded=0;fontStyle=1" vertex="1" parent="zTAyR1EP8t8b5qUxrJmI-66">
          <mxGeometry x="8" width="70" height="20" as="geometry" />
        </mxCell>
        <mxCell id="zTAyR1EP8t8b5qUxrJmI-64" value="" style="rounded=0;whiteSpace=wrap;html=1;fillColor=none;strokeColor=#FF0000;dashed=1;strokeWidth=1.4;" vertex="1" parent="zTAyR1EP8t8b5qUxrJmI-66">
          <mxGeometry y="19" width="90" height="78" as="geometry" />
        </mxCell>
        <mxCell id="zTAyR1EP8t8b5qUxrJmI-82" value="" style="group" vertex="1" connectable="0" parent="1">
          <mxGeometry x="270" y="389" width="120" height="199" as="geometry" />
        </mxCell>
        <mxCell id="zTAyR1EP8t8b5qUxrJmI-65" value="&lt;pre style=&quot;line-height: 16.25px; padding: 0 var(--jp-code-padding); color: rgb(33, 33, 33); text-align: start;&quot;&gt;&lt;span class=&quot;nf&quot; style=&quot;&quot;&gt;&lt;font style=&quot;font-size: 13px;&quot;&gt;Residual_block&lt;/font&gt;&lt;/span&gt;&lt;/pre&gt;" style="text;html=1;align=center;verticalAlign=middle;whiteSpace=wrap;rounded=0;fontStyle=1" vertex="1" parent="zTAyR1EP8t8b5qUxrJmI-82">
          <mxGeometry x="29" width="70" height="20" as="geometry" />
        </mxCell>
        <mxCell id="zTAyR1EP8t8b5qUxrJmI-76" style="edgeStyle=orthogonalEdgeStyle;curved=1;rounded=0;orthogonalLoop=1;jettySize=auto;html=1;exitX=0.5;exitY=0;exitDx=0;exitDy=0;startArrow=blockThin;startFill=1;endArrow=none;strokeWidth=1.3;" edge="1" parent="zTAyR1EP8t8b5qUxrJmI-82" source="zTAyR1EP8t8b5qUxrJmI-67">
          <mxGeometry relative="1" as="geometry">
            <mxPoint x="70" y="29" as="targetPoint" />
          </mxGeometry>
        </mxCell>
        <mxCell id="zTAyR1EP8t8b5qUxrJmI-67" value="&lt;span style=&quot;font-size: 12px;&quot;&gt;&lt;b&gt;Conv_block&lt;/b&gt;&lt;/span&gt;" style="whiteSpace=wrap;html=1;rounded=1;fillColor=#b1ddf0;strokeColor=#10739e;fontStyle=0;fontSize=10;" vertex="1" parent="zTAyR1EP8t8b5qUxrJmI-82">
          <mxGeometry x="30" y="56" width="80" height="20" as="geometry" />
        </mxCell>
        <mxCell id="zTAyR1EP8t8b5qUxrJmI-69" value="&lt;span style=&quot;font-size: 12px;&quot;&gt;&lt;b&gt;Conv_block&lt;/b&gt;&lt;/span&gt;" style="whiteSpace=wrap;html=1;rounded=1;fillColor=#b1ddf0;strokeColor=#10739e;fontStyle=0;fontSize=10;" vertex="1" parent="zTAyR1EP8t8b5qUxrJmI-82">
          <mxGeometry x="30" y="79" width="80" height="20" as="geometry" />
        </mxCell>
        <mxCell id="zTAyR1EP8t8b5qUxrJmI-70" value="&lt;span style=&quot;font-weight: normal;&quot;&gt;&lt;font style=&quot;font-size: 12px;&quot;&gt;Conv&lt;/font&gt;&lt;/span&gt;" style="whiteSpace=wrap;html=1;rounded=1;fillColor=#e1d5e7;strokeColor=#9673a6;fontStyle=1;fontSize=10;" vertex="1" parent="zTAyR1EP8t8b5qUxrJmI-82">
          <mxGeometry x="30" y="102" width="80" height="20" as="geometry" />
        </mxCell>
        <mxCell id="zTAyR1EP8t8b5qUxrJmI-71" value="&lt;span style=&quot;font-weight: normal;&quot;&gt;&lt;font style=&quot;font-size: 12px;&quot;&gt;BN&lt;/font&gt;&lt;/span&gt;" style="whiteSpace=wrap;html=1;rounded=1;fillColor=#fff2cc;strokeColor=#d6b656;fontStyle=1;fontSize=10;" vertex="1" parent="zTAyR1EP8t8b5qUxrJmI-82">
          <mxGeometry x="30" y="125" width="80" height="20" as="geometry" />
        </mxCell>
        <mxCell id="zTAyR1EP8t8b5qUxrJmI-77" style="edgeStyle=orthogonalEdgeStyle;curved=1;rounded=0;orthogonalLoop=1;jettySize=auto;html=1;exitX=0.5;exitY=1;exitDx=0;exitDy=0;strokeWidth=1.3;endArrow=blockThin;startFill=0;startArrow=none;endFill=1;" edge="1" parent="zTAyR1EP8t8b5qUxrJmI-82" source="zTAyR1EP8t8b5qUxrJmI-73">
          <mxGeometry relative="1" as="geometry">
            <mxPoint x="70" y="199" as="targetPoint" />
            <Array as="points">
              <mxPoint x="70" y="189" />
              <mxPoint x="70" y="189" />
            </Array>
          </mxGeometry>
        </mxCell>
        <mxCell id="zTAyR1EP8t8b5qUxrJmI-78" style="edgeStyle=orthogonalEdgeStyle;curved=1;rounded=0;orthogonalLoop=1;jettySize=auto;html=1;exitX=0;exitY=0.5;exitDx=0;exitDy=0;strokeWidth=1.3;endArrow=none;startFill=1;startArrow=blockThin;" edge="1" parent="zTAyR1EP8t8b5qUxrJmI-82" source="zTAyR1EP8t8b5qUxrJmI-73">
          <mxGeometry relative="1" as="geometry">
            <mxPoint x="70" y="39" as="targetPoint" />
            <Array as="points">
              <mxPoint x="10" y="158" />
              <mxPoint x="10" y="39" />
            </Array>
          </mxGeometry>
        </mxCell>
        <mxCell id="zTAyR1EP8t8b5qUxrJmI-73" value="&lt;span style=&quot;font-weight: normal;&quot;&gt;&lt;font style=&quot;font-size: 12px;&quot;&gt;Addition&lt;/font&gt;&lt;/span&gt;" style="whiteSpace=wrap;html=1;rounded=1;fillColor=#f5f5f5;strokeColor=#666666;fontStyle=1;fontSize=10;gradientColor=#b3b3b3;" vertex="1" parent="zTAyR1EP8t8b5qUxrJmI-82">
          <mxGeometry x="30" y="148" width="80" height="20" as="geometry" />
        </mxCell>
        <mxCell id="zTAyR1EP8t8b5qUxrJmI-79" value="" style="rounded=0;whiteSpace=wrap;html=1;fillColor=none;strokeColor=light-dark(#da0b0b, #ededed);strokeWidth=1.4;dashed=1;" vertex="1" parent="zTAyR1EP8t8b5qUxrJmI-82">
          <mxGeometry y="20" width="120" height="179" as="geometry" />
        </mxCell>
        <mxCell id="zTAyR1EP8t8b5qUxrJmI-101" value="" style="group" vertex="1" connectable="0" parent="1">
          <mxGeometry x="165" y="451" width="91" height="75" as="geometry" />
        </mxCell>
        <mxCell id="zTAyR1EP8t8b5qUxrJmI-94" value="" style="group" vertex="1" connectable="0" parent="zTAyR1EP8t8b5qUxrJmI-101">
          <mxGeometry x="6" y="27" width="80" height="42" as="geometry" />
        </mxCell>
        <mxCell id="zTAyR1EP8t8b5qUxrJmI-88" value="&lt;span style=&quot;font-size: 12px;&quot;&gt;&lt;b&gt;Conv_block&lt;/b&gt;&lt;/span&gt;" style="whiteSpace=wrap;html=1;rounded=1;fillColor=#dae8fc;strokeColor=#6c8ebf;fontStyle=0;fontSize=10;gradientColor=#7ea6e0;" vertex="1" parent="zTAyR1EP8t8b5qUxrJmI-94">
          <mxGeometry width="80" height="20" as="geometry" />
        </mxCell>
        <mxCell id="zTAyR1EP8t8b5qUxrJmI-90" value="&lt;span style=&quot;font-size: 12px;&quot;&gt;&lt;b&gt;Conv_block&lt;/b&gt;&lt;/span&gt;" style="whiteSpace=wrap;html=1;rounded=1;fillColor=#dae8fc;strokeColor=#6c8ebf;fontStyle=0;fontSize=10;gradientColor=#7ea6e0;" vertex="1" parent="zTAyR1EP8t8b5qUxrJmI-94">
          <mxGeometry y="22" width="80" height="20" as="geometry" />
        </mxCell>
        <mxCell id="zTAyR1EP8t8b5qUxrJmI-96" value="" style="rounded=0;whiteSpace=wrap;html=1;fillColor=none;strokeColor=light-dark(#e50606, #ededed);strokeWidth=1.4;dashed=1;" vertex="1" parent="zTAyR1EP8t8b5qUxrJmI-101">
          <mxGeometry y="21" width="91" height="54" as="geometry" />
        </mxCell>
        <mxCell id="zTAyR1EP8t8b5qUxrJmI-97" value="&lt;pre style=&quot;line-height: 16.25px; padding: 0 var(--jp-code-padding); color: rgb(33, 33, 33); font-size: 13px; text-align: start;&quot;&gt;&lt;span style=&quot;color: var(--jp-mirror-editor-comment-color);&quot; class=&quot;c1&quot;&gt;Bridge&lt;/span&gt;&lt;/pre&gt;" style="text;html=1;align=center;verticalAlign=middle;whiteSpace=wrap;rounded=0;fontStyle=1" vertex="1" parent="zTAyR1EP8t8b5qUxrJmI-101">
          <mxGeometry x="11" width="70" height="20" as="geometry" />
        </mxCell>
        <mxCell id="zTAyR1EP8t8b5qUxrJmI-117" value="" style="group" vertex="1" connectable="0" parent="1">
          <mxGeometry x="425" y="418.5" width="100" height="140" as="geometry" />
        </mxCell>
        <mxCell id="zTAyR1EP8t8b5qUxrJmI-14" value="&lt;pre style=&quot;line-height: 16.25px; padding: 0 var(--jp-code-padding); color: rgb(33, 33, 33); font-size: 13px; text-align: start;&quot;&gt;&lt;span class=&quot;n&quot;&gt;&lt;b&gt;upsample_concat_block&lt;/b&gt;&lt;/span&gt;&lt;/pre&gt;" style="text;html=1;align=center;verticalAlign=middle;whiteSpace=wrap;rounded=0;fontStyle=0" vertex="1" parent="zTAyR1EP8t8b5qUxrJmI-117">
          <mxGeometry x="1" width="98" height="20" as="geometry" />
        </mxCell>
        <mxCell id="zTAyR1EP8t8b5qUxrJmI-116" style="edgeStyle=orthogonalEdgeStyle;rounded=0;orthogonalLoop=1;jettySize=auto;html=1;exitX=0.5;exitY=1;exitDx=0;exitDy=0;strokeWidth=1.2;endArrow=none;startFill=1;startArrow=blockThin;" edge="1" parent="zTAyR1EP8t8b5qUxrJmI-117" source="zTAyR1EP8t8b5qUxrJmI-102">
          <mxGeometry relative="1" as="geometry">
            <mxPoint x="51" y="136" as="targetPoint" />
            <Array as="points">
              <mxPoint x="51" y="126" />
              <mxPoint x="51" y="126" />
            </Array>
          </mxGeometry>
        </mxCell>
        <mxCell id="zTAyR1EP8t8b5qUxrJmI-102" value="&lt;span style=&quot;&quot;&gt;&lt;font style=&quot;font-size: 12px;&quot;&gt;Up Sampling&lt;/font&gt;&lt;/span&gt;" style="whiteSpace=wrap;html=1;rounded=1;fillColor=#fff2cc;strokeColor=#d6b656;fontStyle=0;fontSize=10;" vertex="1" parent="zTAyR1EP8t8b5qUxrJmI-117">
          <mxGeometry x="8" y="86" width="86" height="20" as="geometry" />
        </mxCell>
        <mxCell id="zTAyR1EP8t8b5qUxrJmI-104" value="&lt;font style=&quot;&quot;&gt;Concatenate&amp;nbsp;&lt;/font&gt;" style="rounded=1;whiteSpace=wrap;html=1;fillColor=#e6d0de;strokeColor=#996185;gradientColor=#d5739d;" vertex="1" parent="zTAyR1EP8t8b5qUxrJmI-117">
          <mxGeometry x="8.5" y="58" width="85" height="23" as="geometry" />
        </mxCell>
        <mxCell id="zTAyR1EP8t8b5qUxrJmI-115" style="edgeStyle=orthogonalEdgeStyle;rounded=0;orthogonalLoop=1;jettySize=auto;html=1;exitX=0.5;exitY=0;exitDx=0;exitDy=0;strokeWidth=1.2;endArrow=blockThin;endFill=1;" edge="1" parent="zTAyR1EP8t8b5qUxrJmI-117">
          <mxGeometry relative="1" as="geometry">
            <mxPoint x="51" y="26" as="targetPoint" />
            <mxPoint x="50.5" y="56" as="sourcePoint" />
          </mxGeometry>
        </mxCell>
        <mxCell id="zTAyR1EP8t8b5qUxrJmI-114" value="" style="rounded=0;whiteSpace=wrap;html=1;fillColor=none;strokeColor=light-dark(#ec0404, #ededed);strokeWidth=1.4;dashed=1;" vertex="1" parent="zTAyR1EP8t8b5qUxrJmI-117">
          <mxGeometry y="20" width="100" height="120" as="geometry" />
        </mxCell>
        <mxCell id="zTAyR1EP8t8b5qUxrJmI-131" value="" style="group" vertex="1" connectable="0" parent="1">
          <mxGeometry x="548" y="427" width="120" height="123" as="geometry" />
        </mxCell>
        <mxCell id="zTAyR1EP8t8b5qUxrJmI-83" value="&lt;pre style=&quot;font-size: 12px; line-height: 16.25px; padding: 0 var(--jp-code-padding); color: rgb(33, 33, 33); text-align: start;&quot;&gt;&lt;span style=&quot;&quot; class=&quot;nf&quot;&gt;&lt;font style=&quot;font-size: 13px;&quot;&gt;Residual_block&lt;/font&gt;&lt;/span&gt;&lt;/pre&gt;" style="whiteSpace=wrap;html=1;rounded=1;fillColor=#cdeb8b;strokeColor=#36393d;fontStyle=1;fontSize=10;" vertex="1" parent="zTAyR1EP8t8b5qUxrJmI-131">
          <mxGeometry x="6" y="26" width="110" height="20" as="geometry" />
        </mxCell>
        <mxCell id="zTAyR1EP8t8b5qUxrJmI-84" value="&lt;pre style=&quot;font-size: 12px; line-height: 16.25px; padding: 0 var(--jp-code-padding); color: rgb(33, 33, 33); text-align: start;&quot;&gt;&lt;span style=&quot;&quot; class=&quot;nf&quot;&gt;&lt;font style=&quot;font-size: 13px;&quot;&gt;Residual_block&lt;/font&gt;&lt;/span&gt;&lt;/pre&gt;" style="whiteSpace=wrap;html=1;rounded=1;fillColor=#cdeb8b;strokeColor=#36393d;fontStyle=1;fontSize=10;" vertex="1" parent="zTAyR1EP8t8b5qUxrJmI-131">
          <mxGeometry x="6" y="50" width="110" height="20" as="geometry" />
        </mxCell>
        <mxCell id="zTAyR1EP8t8b5qUxrJmI-85" value="&lt;pre style=&quot;font-size: 12px; line-height: 16.25px; padding: 0 var(--jp-code-padding); color: rgb(33, 33, 33); text-align: start;&quot;&gt;&lt;span style=&quot;&quot; class=&quot;nf&quot;&gt;&lt;font style=&quot;font-size: 13px;&quot;&gt;Residual_block&lt;/font&gt;&lt;/span&gt;&lt;/pre&gt;" style="whiteSpace=wrap;html=1;rounded=1;fillColor=#cdeb8b;strokeColor=#36393d;fontStyle=1;fontSize=10;" vertex="1" parent="zTAyR1EP8t8b5qUxrJmI-131">
          <mxGeometry x="6" y="74" width="110" height="20" as="geometry" />
        </mxCell>
        <mxCell id="zTAyR1EP8t8b5qUxrJmI-86" value="&lt;pre style=&quot;font-size: 12px; line-height: 16.25px; padding: 0 var(--jp-code-padding); color: rgb(33, 33, 33); text-align: start;&quot;&gt;&lt;span style=&quot;&quot; class=&quot;nf&quot;&gt;&lt;font style=&quot;font-size: 13px;&quot;&gt;Residual_block&lt;/font&gt;&lt;/span&gt;&lt;/pre&gt;" style="whiteSpace=wrap;html=1;rounded=1;fillColor=#cdeb8b;strokeColor=#36393d;fontStyle=1;fontSize=10;" vertex="1" parent="zTAyR1EP8t8b5qUxrJmI-131">
          <mxGeometry x="6" y="98" width="110" height="20" as="geometry" />
        </mxCell>
        <mxCell id="zTAyR1EP8t8b5qUxrJmI-98" value="&lt;span style=&quot;text-wrap-mode: nowrap; color: rgba(0, 0, 0, 0); font-family: monospace; font-size: 0px; text-align: start;&quot;&gt;%3CmxGraphModel%3E%3Croot%3E%3CmxCell%20id%3D%220%22%2F%3E%3CmxCell%20id%3D%221%22%20parent%3D%220%22%2F%3E%3CmxCell%20id%3D%222%22%20value%3D%22%22%20style%3D%22rounded%3D0%3BwhiteSpace%3Dwrap%3Bhtml%3D1%3BfillColor%3Dnone%3BstrokeWidth%3D1.4%3Bdashed%3D1%3BstrokeColor%3Dlight-dark(%23e60505%2C%20%23ededed)%3B%22%20vertex%3D%221%22%20parent%3D%221%22%3E%3CmxGeometry%20x%3D%2274%22%20y%3D%22654%22%20width%3D%22120%22%20height%3D%22102%22%20as%3D%22geometry%22%2F%3E%3C%2FmxCell%3E%3C%2Froot%3E%3C%2FmxGraphModel%3E&lt;/span&gt;&lt;span style=&quot;text-wrap-mode: nowrap; color: rgba(0, 0, 0, 0); font-family: monospace; font-size: 0px; text-align: start;&quot;&gt;%3CmxGraphModel%3E%3Croot%3E%3CmxCell%20id%3D%220%22%2F%3E%3CmxCell%20id%3D%221%22%20parent%3D%220%22%2F%3E%3CmxCell%20id%3D%222%22%20value%3D%22%22%20style%3D%22rounded%3D0%3BwhiteSpace%3Dwrap%3Bhtml%3D1%3BfillColor%3Dnone%3BstrokeWidth%3D1.4%3Bdashed%3D1%3BstrokeColor%3Dlight-dark(%23e60505%2C%20%23ededed)%3B%22%20vertex%3D%221%22%20parent%3D%221%22%3E%3CmxGeometry%20x%3D%2274%22%20y%3D%22654%22%20width%3D%22120%22%20height%3D%22102%22%20as%3D%22geometry%22%2F%3E%3C%2FmxCell%3E%3C%2Froot%3E%3C%2FmxGraphModel%3E&lt;/span&gt;&lt;span style=&quot;text-wrap-mode: nowrap; color: rgba(0, 0, 0, 0); font-family: monospace; font-size: 0px; text-align: start;&quot;&gt;%3CmxGraphModel%3E%3Croot%3E%3CmxCell%20id%3D%220%22%2F%3E%3CmxCell%20id%3D%221%22%20parent%3D%220%22%2F%3E%3CmxCell%20id%3D%222%22%20value%3D%22%22%20style%3D%22rounded%3D0%3BwhiteSpace%3Dwrap%3Bhtml%3D1%3BfillColor%3Dnone%3BstrokeWidth%3D1.4%3Bdashed%3D1%3BstrokeColor%3Dlight-dark(%23e60505%2C%20%23ededed)%3B%22%20vertex%3D%221%22%20parent%3D%221%22%3E%3CmxGeometry%20x%3D%2274%22%20y%3D%22654%22%20width%3D%22120%22%20height%3D%22102%22%20as%3D%22geometry%22%2F%3E%3C%2FmxCell%3E%3C%2Froot%3E%3C%2FmxGraphModel%3E&lt;/span&gt;&lt;span style=&quot;text-wrap-mode: nowrap; color: rgba(0, 0, 0, 0); font-family: monospace; font-size: 0px; text-align: start;&quot;&gt;%3CmxGraphModel%3E%3Croot%3E%3CmxCell%20id%3D%220%22%2F%3E%3CmxCell%20id%3D%221%22%20parent%3D%220%22%2F%3E%3CmxCell%20id%3D%222%22%20value%3D%22%22%20style%3D%22rounded%3D0%3BwhiteSpace%3Dwrap%3Bhtml%3D1%3BfillColor%3Dnone%3BstrokeWidth%3D1.4%3Bdashed%3D1%3BstrokeColor%3Dlight-dark(%23e60505%2C%20%23ededed)%3B%22%20vertex%3D%221%22%20parent%3D%221%22%3E%3CmxGeometry%20x%3D%2274%22%20y%3D%22654%22%20width%3D%22120%22%20height%3D%22102%22%20as%3D%22geometry%22%2F%3E%3C%2FmxCell%3E%3C%2Froot%3E%3C%2FmxGraphModel%3E&lt;/span&gt;&lt;span style=&quot;text-wrap-mode: nowrap; color: rgba(0, 0, 0, 0); font-family: monospace; font-size: 0px; text-align: start;&quot;&gt;%3CmxGraphModel%3E%3Croot%3E%3CmxCell%20id%3D%220%22%2F%3E%3CmxCell%20id%3D%221%22%20parent%3D%220%22%2F%3E%3CmxCell%20id%3D%222%22%20value%3D%22%22%20style%3D%22rounded%3D0%3BwhiteSpace%3Dwrap%3Bhtml%3D1%3BfillColor%3Dnone%3BstrokeWidth%3D1.4%3Bdashed%3D1%3BstrokeColor%3Dlight-dark(%23e60505%2C%20%23ededed)%3B%22%20vertex%3D%221%22%20parent%3D%221%22%3E%3CmxGeometry%20x%3D%2274%22%20y%3D%22654%22%20width%3D%22120%22%20height%3D%22102%22%20as%3D%22geometry%22%2F%3E%3C%2FmxCell%3E%3C%2Froot%3E%3C%2FmxGraphModel%3E&lt;/span&gt;&lt;span style=&quot;text-wrap-mode: nowrap; color: rgba(0, 0, 0, 0); font-family: monospace; font-size: 0px; text-align: start;&quot;&gt;%3CmxGraphModel%3E%3Croot%3E%3CmxCell%20id%3D%220%22%2F%3E%3CmxCell%20id%3D%221%22%20parent%3D%220%22%2F%3E%3CmxCell%20id%3D%222%22%20value%3D%22%22%20style%3D%22rounded%3D0%3BwhiteSpace%3Dwrap%3Bhtml%3D1%3BfillColor%3Dnone%3BstrokeWidth%3D1.4%3Bdashed%3D1%3BstrokeColor%3Dlight-dark(%23e60505%2C%20%23ededed)%3B%22%20vertex%3D%221%22%20parent%3D%221%22%3E%3CmxGeometry%20x%3D%2274%22%20y%3D%22654%22%20width%3D%22120%22%20height%3D%22102%22%20as%3D%22geometry%22%2F%3E%3C%2FmxCell%3E%3C%2Froot%3E%3C%2FmxGraphModel%3E&lt;/span&gt;" style="rounded=0;whiteSpace=wrap;html=1;fillColor=none;strokeWidth=1.4;dashed=1;strokeColor=light-dark(#e60505, #ededed);" vertex="1" parent="zTAyR1EP8t8b5qUxrJmI-131">
          <mxGeometry y="21" width="120" height="102" as="geometry" />
        </mxCell>
        <mxCell id="zTAyR1EP8t8b5qUxrJmI-100" value="&lt;pre style=&quot;line-height: 16.25px; padding: 0 var(--jp-code-padding); color: rgb(33, 33, 33); font-size: 13px; text-align: start;&quot;&gt;&lt;pre style=&quot;font-weight: 400; line-height: 16.25px; padding: 0 var(--jp-code-padding); color: rgb(33, 33, 33);&quot;&gt;&lt;span style=&quot;color: var(--jp-mirror-editor-comment-color);&quot; class=&quot;c1&quot;&gt;&lt;b&gt;Encoder&lt;/b&gt;&lt;/span&gt;&lt;/pre&gt;&lt;/pre&gt;" style="text;html=1;align=center;verticalAlign=middle;whiteSpace=wrap;rounded=0;fontStyle=1" vertex="1" parent="zTAyR1EP8t8b5qUxrJmI-131">
          <mxGeometry x="26" width="70" height="20" as="geometry" />
        </mxCell>
        <mxCell id="zTAyR1EP8t8b5qUxrJmI-138" value="" style="group" vertex="1" connectable="0" parent="1">
          <mxGeometry x="678" y="371" width="170" height="217" as="geometry" />
        </mxCell>
        <mxCell id="zTAyR1EP8t8b5qUxrJmI-113" value="&lt;pre style=&quot;line-height: 16.25px; padding: 0 var(--jp-code-padding); color: rgb(33, 33, 33); font-size: 13px; text-align: start;&quot;&gt;&lt;pre style=&quot;font-weight: 400; line-height: 16.25px; padding: 0 var(--jp-code-padding); color: rgb(33, 33, 33);&quot;&gt;&lt;span style=&quot;color: var(--jp-mirror-editor-comment-color);&quot; class=&quot;c1&quot;&gt;&lt;b&gt;Decoder&lt;/b&gt;&lt;/span&gt;&lt;/pre&gt;&lt;/pre&gt;" style="text;html=1;align=center;verticalAlign=middle;whiteSpace=wrap;rounded=0;fontStyle=1" vertex="1" parent="zTAyR1EP8t8b5qUxrJmI-138">
          <mxGeometry x="50" width="70" height="20" as="geometry" />
        </mxCell>
        <mxCell id="zTAyR1EP8t8b5qUxrJmI-136" value="" style="group" vertex="1" connectable="0" parent="zTAyR1EP8t8b5qUxrJmI-138">
          <mxGeometry x="5" y="26" width="160" height="185.5" as="geometry" />
        </mxCell>
        <mxCell id="zTAyR1EP8t8b5qUxrJmI-125" value="&lt;pre style=&quot;font-size: 12px; line-height: 16.25px; padding: 0 var(--jp-code-padding); color: rgb(33, 33, 33); text-align: start;&quot;&gt;&lt;pre style=&quot;font-weight: 400; line-height: 16.25px; padding: 0 var(--jp-code-padding); color: rgb(33, 33, 33); font-size: 13px;&quot;&gt;&lt;span class=&quot;n&quot;&gt;&lt;b&gt;upsample_concat_block&lt;/b&gt;&lt;/span&gt;&lt;/pre&gt;&lt;/pre&gt;" style="whiteSpace=wrap;html=1;rounded=1;fillColor=#f5f5f5;strokeColor=#666666;fontStyle=1;fontSize=10;gradientColor=#b3b3b3;" vertex="1" parent="zTAyR1EP8t8b5qUxrJmI-136">
          <mxGeometry y="165.5" width="160" height="20" as="geometry" />
        </mxCell>
        <mxCell id="zTAyR1EP8t8b5qUxrJmI-128" value="&lt;pre style=&quot;font-size: 12px; line-height: 16.25px; padding: 0 var(--jp-code-padding); color: rgb(33, 33, 33); text-align: start;&quot;&gt;&lt;span style=&quot;&quot; class=&quot;nf&quot;&gt;&lt;font style=&quot;font-size: 13px;&quot;&gt;Residual_block&lt;/font&gt;&lt;/span&gt;&lt;/pre&gt;" style="whiteSpace=wrap;html=1;rounded=1;fillColor=#cdeb8b;strokeColor=#36393d;fontStyle=1;fontSize=10;" vertex="1" parent="zTAyR1EP8t8b5qUxrJmI-136">
          <mxGeometry x="25" y="141.5" width="110" height="20" as="geometry" />
        </mxCell>
        <mxCell id="zTAyR1EP8t8b5qUxrJmI-129" value="&lt;pre style=&quot;font-size: 12px; line-height: 16.25px; padding: 0 var(--jp-code-padding); color: rgb(33, 33, 33); text-align: start;&quot;&gt;&lt;pre style=&quot;font-weight: 400; line-height: 16.25px; padding: 0 var(--jp-code-padding); color: rgb(33, 33, 33); font-size: 13px;&quot;&gt;&lt;span class=&quot;n&quot;&gt;&lt;b&gt;upsample_concat_block&lt;/b&gt;&lt;/span&gt;&lt;/pre&gt;&lt;/pre&gt;" style="whiteSpace=wrap;html=1;rounded=1;fillColor=#f5f5f5;strokeColor=#666666;fontStyle=1;fontSize=10;gradientColor=#b3b3b3;" vertex="1" parent="zTAyR1EP8t8b5qUxrJmI-136">
          <mxGeometry y="117.5" width="160" height="20" as="geometry" />
        </mxCell>
        <mxCell id="zTAyR1EP8t8b5qUxrJmI-130" value="&lt;pre style=&quot;font-size: 12px; line-height: 16.25px; padding: 0 var(--jp-code-padding); color: rgb(33, 33, 33); text-align: start;&quot;&gt;&lt;span style=&quot;&quot; class=&quot;nf&quot;&gt;&lt;font style=&quot;font-size: 13px;&quot;&gt;Residual_block&lt;/font&gt;&lt;/span&gt;&lt;/pre&gt;" style="whiteSpace=wrap;html=1;rounded=1;fillColor=#cdeb8b;strokeColor=#36393d;fontStyle=1;fontSize=10;" vertex="1" parent="zTAyR1EP8t8b5qUxrJmI-136">
          <mxGeometry x="25" y="94.5" width="110" height="20" as="geometry" />
        </mxCell>
        <mxCell id="zTAyR1EP8t8b5qUxrJmI-132" value="&lt;pre style=&quot;font-size: 12px; line-height: 16.25px; padding: 0 var(--jp-code-padding); color: rgb(33, 33, 33); text-align: start;&quot;&gt;&lt;pre style=&quot;font-weight: 400; line-height: 16.25px; padding: 0 var(--jp-code-padding); color: rgb(33, 33, 33); font-size: 13px;&quot;&gt;&lt;span class=&quot;n&quot;&gt;&lt;b&gt;upsample_concat_block&lt;/b&gt;&lt;/span&gt;&lt;/pre&gt;&lt;/pre&gt;" style="whiteSpace=wrap;html=1;rounded=1;fillColor=#f5f5f5;strokeColor=#666666;fontStyle=1;fontSize=10;gradientColor=#b3b3b3;" vertex="1" parent="zTAyR1EP8t8b5qUxrJmI-136">
          <mxGeometry y="71" width="160" height="20" as="geometry" />
        </mxCell>
        <mxCell id="zTAyR1EP8t8b5qUxrJmI-133" value="&lt;pre style=&quot;font-size: 12px; line-height: 16.25px; padding: 0 var(--jp-code-padding); color: rgb(33, 33, 33); text-align: start;&quot;&gt;&lt;span style=&quot;&quot; class=&quot;nf&quot;&gt;&lt;font style=&quot;font-size: 13px;&quot;&gt;Residual_block&lt;/font&gt;&lt;/span&gt;&lt;/pre&gt;" style="whiteSpace=wrap;html=1;rounded=1;fillColor=#cdeb8b;strokeColor=#36393d;fontStyle=1;fontSize=10;" vertex="1" parent="zTAyR1EP8t8b5qUxrJmI-136">
          <mxGeometry x="25" y="47" width="110" height="20" as="geometry" />
        </mxCell>
        <mxCell id="zTAyR1EP8t8b5qUxrJmI-134" value="&lt;pre style=&quot;font-size: 12px; line-height: 16.25px; padding: 0 var(--jp-code-padding); color: rgb(33, 33, 33); text-align: start;&quot;&gt;&lt;pre style=&quot;font-weight: 400; line-height: 16.25px; padding: 0 var(--jp-code-padding); color: rgb(33, 33, 33); font-size: 13px;&quot;&gt;&lt;span class=&quot;n&quot;&gt;&lt;b&gt;upsample_concat_block&lt;/b&gt;&lt;/span&gt;&lt;/pre&gt;&lt;/pre&gt;" style="whiteSpace=wrap;html=1;rounded=1;fillColor=#f5f5f5;strokeColor=#666666;fontStyle=1;fontSize=10;gradientColor=#b3b3b3;" vertex="1" parent="zTAyR1EP8t8b5qUxrJmI-136">
          <mxGeometry y="23" width="160" height="20" as="geometry" />
        </mxCell>
        <mxCell id="zTAyR1EP8t8b5qUxrJmI-135" value="&lt;pre style=&quot;font-size: 12px; line-height: 16.25px; padding: 0 var(--jp-code-padding); color: rgb(33, 33, 33); text-align: start;&quot;&gt;&lt;span style=&quot;&quot; class=&quot;nf&quot;&gt;&lt;font style=&quot;font-size: 13px;&quot;&gt;Residual_block&lt;/font&gt;&lt;/span&gt;&lt;/pre&gt;" style="whiteSpace=wrap;html=1;rounded=1;fillColor=#cdeb8b;strokeColor=#36393d;fontStyle=1;fontSize=10;" vertex="1" parent="zTAyR1EP8t8b5qUxrJmI-136">
          <mxGeometry x="25" width="110" height="20" as="geometry" />
        </mxCell>
        <mxCell id="zTAyR1EP8t8b5qUxrJmI-137" value="" style="rounded=0;whiteSpace=wrap;html=1;fillColor=none;strokeColor=#FF0000;strokeWidth=1.4;dashed=1;" vertex="1" parent="zTAyR1EP8t8b5qUxrJmI-138">
          <mxGeometry y="20" width="170" height="197" as="geometry" />
        </mxCell>
      </root>
    </mxGraphModel>
  </diagram>
</mxfile>
